<svg width="398" height="44" fill="none" xmlns="http://www.w3.org/2000/svg"><g clip-path="url(#a)"><path d="M30.26 7.267C29.459 3.481 27.164.9 26.13.383c-2.323-1.161-3.097.689-4.13.689s-1.807-1.85-4.13-.689c-1.033.516-3.328 3.098-4.13 6.884-.804 3.786 8.26.689 8.26.689s9.064 3.097 8.26-.689Z" fill="#FFD24F"/><path d="M22 18.587c8.744 0 15.833-2.62 15.833-5.852 0-3.231-7.089-5.851-15.833-5.851S6.167 9.504 6.167 12.735c0 3.232 7.089 5.852 15.833 5.852Z" fill="#FFBE1E"/><path d="M12.684 16.972c-1.032-.258-1.708.293-1.708 1.377 0 1.434 1.388 4.948 2.847 2.753 1.459-2.194-1.139-4.13-1.139-4.13ZM31.14 16.972c1.127-.258 1.865.293 1.865 1.377 0 1.434-1.515 4.948-3.107 2.753-1.593-2.194 1.243-4.13 1.243-4.13Z" fill="#FFE1B2"/><path d="M14.437 29.49c1.54-.992 1.367-3.942 1.367-4.63h12.392c0 .688-.191 3.638 1.348 4.63L22 37.94l-7.563-8.45Z" fill="#FFD7A3"/><path d="m26.819 32.432 2.725-2.943c-1.54-.99-1.348-3.94-1.348-4.63H15.804c.89 2.557 6.77 6.942 11.015 7.573Z" fill="#FDC88E"/><path d="M37.833 44c1.14 0 2.065-.925 2.065-2.065v-4.102c0-3.029-2.36-6.262-5.245-7.186l-4.307-1.378c-2.317 1.772-5.628 4.189-8.346 4.189s-6.03-2.417-8.346-4.189l-4.307 1.378c-2.885.924-5.245 4.157-5.245 7.186v4.102c0 1.14.924 2.065 2.065 2.065h31.666Z" fill="#FF6953"/><path d="M39.853 42.36h-1.068v-1.447h1.113V39.86h-1.113v-1.448h1.113v-.579c0-.158-.01-.316-.022-.475h-1.091v-1.447h.81a7.86 7.86 0 0 0-.407-1.054h-.403v-.755a8.659 8.659 0 0 0-1.384-1.746h-1.117v-.91a6.57 6.57 0 0 0-1.63-.799l-2.478-.792h-.895v-.287l-.935-.299c-.038.03-.08.06-.119.09v.496h-.655c-.578.431-1.2.878-1.846 1.306v1.195H26.28v-.304c-1.214.684-2.46 1.207-3.627 1.358h.072v1.447h-1.448V33.41h.072c-1.166-.15-2.413-.674-3.627-1.358v.304h-1.447V31.16a40.384 40.384 0 0 1-1.846-1.306h-.655v-.495l-.12-.091-.934.3v.286h-.895l-2.477.792a6.562 6.562 0 0 0-1.63.8v.909H6.598c-.532.516-1 1.107-1.384 1.746v.755h-.403a7.878 7.878 0 0 0-.406 1.054h.81v1.447H4.123a6.017 6.017 0 0 0-.022.475v.58h1.113v1.447H4.102v1.053h1.113v1.448H4.147c.086.41.294.773.583 1.054h.485v.343c.286.15.607.242.952.242h.102v-.585h1.448V44H8.77v-.585h1.447V44h1.054v-.585h1.447V44h1.054v-.585h1.447V44h1.054v-.585h1.447V44h1.054v-.585h1.448V44h1.054v-.585h1.447V44h1.054v-.585h1.447V44h1.054v-.585h1.447V44h1.054v-.585h1.448V44h1.053v-.585h1.448V44h1.054v-.585h1.447V44h1.054v-.585h1.447V44h.103c.345 0 .665-.093.951-.242v-.343h.486c.288-.281.496-.645.582-1.054Zm-32.137 0H6.27v-1.447h1.447v1.448Zm0-2.5H6.27v-1.448h1.447v1.448Zm0-2.502H6.27v-1.447h1.447v1.447Zm0-2.5H6.27V33.41h1.447v1.447Zm2.502 7.503H8.77v-1.448h1.448v1.448Zm0-2.501H8.77v-1.448h1.448v1.448Zm0-2.502H8.77v-1.447h1.448v1.447Zm0-2.5H8.77V33.41h1.448v1.447Zm0-2.502H8.77v-1.447h1.448v1.447Zm2.5 10.005h-1.446v-1.448h1.447v1.448Zm0-2.501h-1.446v-1.448h1.447v1.448Zm0-2.502h-1.446v-1.447h1.447v1.447Zm0-2.5h-1.446V33.41h1.447v1.447Zm0-2.502h-1.446v-1.447h1.447v1.447ZM15.22 42.36h-1.447v-1.448h1.447v1.448Zm0-2.501h-1.447v-1.448h1.447v1.448Zm0-2.502h-1.447v-1.447h1.447v1.447Zm0-2.5h-1.447V33.41h1.447v1.447Zm0-2.502h-1.447v-1.447h1.447v1.447Zm2.501 10.005h-1.447v-1.448h1.447v1.448Zm0-2.501h-1.447v-1.448h1.447v1.448Zm0-2.502h-1.447v-1.447h1.447v1.447Zm0-2.5h-1.447V33.41h1.447v1.447Zm2.502 7.503h-1.448v-1.448h1.448v1.448Zm0-2.501h-1.448v-1.448h1.448v1.448Zm0-2.502h-1.448v-1.447h1.448v1.447Zm0-2.5h-1.448V33.41h1.448v1.447Zm2.5 7.503h-1.447v-1.448h1.448v1.448Zm0-2.501h-1.447v-1.448h1.448v1.448Zm0-2.502h-1.447v-1.447h1.448v1.447Zm2.502 5.003h-1.448v-1.448h1.448v1.448Zm0-2.501h-1.448v-1.448h1.448v1.448Zm0-2.502h-1.448v-1.447h1.448v1.447Zm0-2.5h-1.448V33.41h1.448v1.447Zm2.501 7.503H26.28v-1.448h1.447v1.448Zm0-2.501H26.28v-1.448h1.447v1.448Zm0-2.502H26.28v-1.447h1.447v1.447Zm0-2.5H26.28V33.41h1.447v1.447Zm2.501 7.503H28.78v-1.448h1.447v1.448Zm0-2.501H28.78v-1.448h1.447v1.448Zm0-2.502H28.78v-1.447h1.447v1.447Zm0-2.5H28.78V33.41h1.447v1.447Zm0-2.502H28.78v-1.447h1.447v1.447Zm2.501 10.005h-1.447v-1.448h1.447v1.448Zm0-2.501h-1.447v-1.448h1.447v1.448Zm0-2.502h-1.447v-1.447h1.447v1.447Zm0-2.5h-1.447V33.41h1.447v1.447Zm0-2.502h-1.447v-1.447h1.447v1.447ZM35.23 42.36h-1.448v-1.448h1.448v1.448Zm0-2.501h-1.448v-1.448h1.448v1.448Zm0-2.502h-1.448v-1.447h1.448v1.447Zm0-2.5h-1.448V33.41h1.448v1.447Zm0-2.502h-1.448v-1.447h1.448v1.447Zm2.5 10.005h-1.447v-1.448h1.448v1.448Zm0-2.501h-1.447v-1.448h1.448v1.448Zm0-2.502h-1.447v-1.447h1.448v1.447Zm0-2.5h-1.447V33.41h1.448v1.447Z" fill="#E95F43"/><path d="m22 33.458-2.872 2.872c-.3.3-.795.26-1.044-.082l-5.033-6.92 1.603-1.604a.688.688 0 0 1 .947-.025L22 33.458ZM22 33.458l2.872 2.872c.3.3.795.26 1.044-.082l5.033-6.92-1.603-1.604a.688.688 0 0 0-.948-.025L22 33.458Z" fill="#FFBE1E"/><path d="M12.792 12.317c-.161.974-.17 2.145-.17 3.536 0 5.513 3.089 12.391 9.378 12.391 6.29 0 9.378-6.878 9.378-12.39 0-1.392-.009-2.563-.17-3.537-2.522-.85-5.723-1.36-9.208-1.36-3.485 0-6.685.51-9.208 1.36Z" fill="#FFE1B2"/><path d="M31.413 13.43c-.55-.707-1.142-1.433-1.142-1.433v.688c.171 6.239-2.049 8.95-2.049 8.95l-2.828.316a29.825 29.825 0 0 1-6.638 0l-2.829-.317s-2.22-2.71-2.05-8.949v-.688s-.59.726-1.141 1.434c-.144.614-.374 1.281-.374 2.014 0 5.513 3.3 13.46 9.713 13.46 6.413 0 9.563-7.947 9.563-13.46 0-.733-.08-1.4-.225-2.014Zm-11.387 9.84h4.098c.562 0 1.044.342 1.253.83-.756.332-1.918.546-3.227.546-1.382 0-2.597-.239-3.347-.603a1.361 1.361 0 0 1 1.223-.773Z" fill="#A7795E"/><path d="M22.366 22.657c0-.909-.882-1.115-1.463-.894-1.065.404-2.237 1.53-3.227.833 0 0 .344 1.455.925 1.455 1.162 0 3.765.152 3.765-1.394Z" fill="#543D38"/><path d="M22.087 22.657c0-.909.882-1.115 1.463-.894 1.065.404 2.238 1.53 3.227.833 0 0-.344 1.455-.925 1.455-1.162 0-3.765.152-3.765-1.394Z" fill="#543D38"/><path d="m33.703 30.254-2.754-.882v8.47c0 .316-.209.595-.515.67-2.33.574-5.253.917-8.434.917-3.18 0-6.104-.343-8.434-.917a.684.684 0 0 1-.515-.67v-8.47l-2.754.882V44h23.406V30.254Z" fill="#C55F54"/><path d="m12.409 17.06 1.858.344s.726-4.071 1.116-5.762a24.714 24.714 0 0 0-2.846.732c-.166.974-.175 2.145-.175 3.537 0 .377.017.762.047 1.15ZM31.591 17.06l-1.858.344s-.727-4.071-1.116-5.762c1.016.202 1.973.446 2.846.732.166.974.175 2.145.175 3.537 0 .377-.017.762-.047 1.15ZM26.044 13.323l1.652-1.88A32.861 32.861 0 0 0 22 10.957c-1.23 0-2.423.067-3.565.186 1.08-.074 5.329.499 7.61 2.18Z" fill="#543D38"/></g><path d="M77.824 13.824c-4.872 0-8.412 3.281-8.412 8.332 0 4.942 3.5 8.114 8.412 8.114h.229v2.565h4.086V30.27h.239c4.892 0 8.392-3.212 8.392-8.104 0-5.06-3.5-8.342-8.392-8.342h-.239v-2.546h-4.086v2.546h-.23Zm0 3.6h.229v9.247h-.23c-2.574 0-4.424-1.492-4.424-4.515 0-3.172 1.8-4.733 4.425-4.733Zm4.315 0h.269c2.595 0 4.345 1.59 4.345 4.742 0 2.963-1.75 4.505-4.345 4.505h-.269v-9.248Zm18.683 14.874c3.779 0 6.324-1.84 6.921-4.673l-3.918-.259c-.427 1.164-1.521 1.77-2.933 1.77-2.118 0-3.46-1.402-3.46-3.679v-.01h10.4v-1.163c0-5.19-3.142-7.756-7.179-7.756-4.494 0-7.407 3.192-7.407 7.905 0 4.843 2.873 7.865 7.576 7.865Zm-3.39-9.476c.09-1.74 1.412-3.132 3.291-3.132 1.839 0 3.112 1.313 3.122 3.132h-6.413Zm13.165 14.905h4.235v-8.173h.13c.586 1.273 1.869 2.695 4.335 2.695 3.48 0 6.194-2.755 6.194-7.866 0-5.25-2.833-7.855-6.184-7.855-2.556 0-3.779 1.522-4.345 2.765h-.189v-2.566h-4.176v21Zm4.146-13.363c0-2.725 1.153-4.465 3.212-4.465 2.098 0 3.211 1.82 3.211 4.465 0 2.664-1.133 4.514-3.211 4.514-2.039 0-3.212-1.79-3.212-4.514Zm22.601 2.953-4.017-10.59h-5.012V32h4.047v-9.376l3.57 9.376h2.814l3.788-9.715V32h3.997V16.727h-5.051l-4.136 10.59Zm19.424 4.981c3.778 0 6.324-1.84 6.92-4.673l-3.917-.259c-.428 1.164-1.522 1.77-2.934 1.77-2.118 0-3.46-1.402-3.46-3.679v-.01h10.401v-1.163c0-5.19-3.142-7.756-7.179-7.756-4.495 0-7.408 3.192-7.408 7.905 0 4.843 2.874 7.865 7.577 7.865Zm-3.391-9.476c.09-1.74 1.412-3.132 3.291-3.132 1.84 0 3.113 1.313 3.122 3.132h-6.413Zm13.165 14.905h4.236v-8.173h.129c.587 1.273 1.869 2.695 4.335 2.695 3.48 0 6.195-2.755 6.195-7.866 0-5.25-2.834-7.855-6.185-7.855-2.555 0-3.778 1.522-4.345 2.765h-.189v-2.566h-4.176v21Zm4.146-13.363c0-2.725 1.154-4.465 3.212-4.465 2.098 0 3.212 1.82 3.212 4.465 0 2.664-1.134 4.514-3.212 4.514-2.038 0-3.212-1.79-3.212-4.514Zm20.473 7.934c4.067 0 6.622-2.386 6.821-5.896h-3.997c-.248 1.63-1.322 2.545-2.774 2.545-1.979 0-3.261-1.66-3.261-4.583 0-2.884 1.292-4.535 3.261-4.535 1.551 0 2.545 1.025 2.774 2.546h3.997c-.179-3.53-2.853-5.847-6.841-5.847-4.633 0-7.497 3.212-7.497 7.895 0 4.644 2.814 7.875 7.517 7.875Zm9.533-.298h4.236v-5.419h1.581L210.279 32h5.032l-5.459-7.696 5.399-7.577h-4.972l-4.156 5.926h-1.193v-5.926h-4.236V32Zm20.453-5.588v-9.685H217.1V32h4.206l5.479-9.715V32h4.037V16.727h-4.176l-5.499 9.685Zm20.031 5.886c3.778 0 6.324-1.84 6.92-4.673l-3.917-.259c-.428 1.164-1.522 1.77-2.933 1.77-2.118 0-3.461-1.402-3.461-3.679v-.01h10.401v-1.163c0-5.19-3.142-7.756-7.179-7.756-4.494 0-7.408 3.192-7.408 7.905 0 4.843 2.874 7.865 7.577 7.865Zm-3.391-9.476c.09-1.74 1.412-3.132 3.291-3.132 1.84 0 3.113 1.313 3.123 3.132h-6.414ZM257.433 32h3.997V20.058h5.309V32h4.047V16.727h-13.353V32Zm16.734 5.727h4.236v-8.173h.129c.587 1.273 1.869 2.695 4.335 2.695 3.48 0 6.195-2.755 6.195-7.866 0-5.25-2.834-7.855-6.185-7.855-2.555 0-3.778 1.522-4.345 2.765h-.189v-2.566h-4.176v21Zm4.146-13.363c0-2.725 1.154-4.465 3.212-4.465 2.098 0 3.212 1.82 3.212 4.465 0 2.664-1.134 4.514-3.212 4.514-2.038 0-3.212-1.79-3.212-4.514Zm20.473 7.934c4.634 0 7.517-3.172 7.517-7.875 0-4.733-2.883-7.895-7.517-7.895-4.633 0-7.517 3.162-7.517 7.895 0 4.703 2.884 7.875 7.517 7.875Zm.02-3.281c-2.138 0-3.231-1.959-3.231-4.623 0-2.665 1.093-4.634 3.231-4.634 2.098 0 3.192 1.969 3.192 4.633 0 2.665-1.094 4.624-3.192 4.624Zm9.058 7.457h4.137V32h9.336v4.474h4.037V28.64h-2.366V16.727h-11.713l-.398 4.992c-.239 3.003-.527 6.075-1.859 6.92h-1.174v7.835Zm5.39-7.835c.904-1.422 1.252-3.659 1.481-6.92l.159-1.73h4.117v8.65h-5.757Zm17.204 9.088c3.152 0 4.822-1.61 5.687-4.076l5.936-16.904-4.484-.02-3.192 11.216h-.159l-3.162-11.216h-4.454l5.478 15.71-.248.647c-.557 1.432-1.621 1.501-3.112 1.044l-.955 3.162c.607.258 1.591.437 2.665.437ZM344.249 32h4.236v-5.419h1.581L353.834 32h5.031l-5.458-7.696 5.399-7.577h-4.972l-4.156 5.926h-1.193v-5.926h-4.236V32Zm15.611-11.942h4.882V32h4.037V20.058h4.922v-3.33H359.86v3.33Zm20.455 1.363v-4.694h-4.047V32h7.219c4.047 0 6.424-2.118 6.433-5.27-.009-3.212-2.386-5.31-6.433-5.31h-3.172ZM391.561 32h4.236V16.727h-4.236V32Zm-11.246-7.249h3.172c1.422 0 2.426.836 2.446 2.009-.02 1.114-1.024 1.909-2.446 1.909h-3.172v-3.918Z" fill="#333"/><defs><clipPath id="a"><path fill="#fff" d="M0 0h44v44H0z"/></clipPath></defs></svg>
